<svg width="16" height="16" viewBox="0 0 16 16" fill="none" xmlns="http://www.w3.org/2000/svg">
<path d="M11.7996 11.3992C11.7996 11.6201 11.6205 11.7992 11.3996 11.7992H11.0003C10.7794 11.7992 10.6003 11.6201 10.6003 11.3992V7.21217C10.6003 6.85581 10.1695 6.67734 9.9175 6.92933L5.40662 11.4402C5.25041 11.5964 4.99715 11.5964 4.84094 11.4402L4.55897 11.1582C4.40276 11.002 4.40276 10.7488 4.55897 10.5925L9.06984 6.08167C9.32183 5.82968 9.14336 5.39883 8.787 5.39883H4.59995C4.37904 5.39883 4.19995 5.21974 4.19995 4.99883V4.59961C4.19995 4.37869 4.37904 4.19961 4.59995 4.19961H11.3996C11.6205 4.19961 11.7996 4.37869 11.7996 4.59961V11.3992Z" fill="black"/>
</svg>
