<svg width="16" height="16" viewBox="0 0 16 16" fill="none" xmlns="http://www.w3.org/2000/svg">
<path d="M8.2848 13.091C8.12859 13.2472 7.87532 13.2472 7.71911 13.091L7.43682 12.8087C7.28061 12.6525 7.28061 12.3993 7.43682 12.243L10.3975 9.28235C10.6495 9.03036 10.471 8.59951 10.1147 8.59951L3.73532 8.59951C3.51441 8.59951 3.33532 8.42042 3.33532 8.19951V7.80074C3.33532 7.57983 3.51441 7.40074 3.73532 7.40074L10.1147 7.40074C10.471 7.40074 10.6495 6.96988 10.3975 6.7179L7.43682 3.75721C7.28061 3.601 7.28061 3.34773 7.43682 3.19152L7.71911 2.90923C7.87532 2.75302 8.12859 2.75302 8.2848 2.90923L13.0928 7.71728C13.2491 7.87349 13.2491 8.12676 13.0928 8.28297L8.2848 13.091Z" fill="black"/>
</svg>
